<mxfile host="app.diagrams.net" modified="2022-05-27T11:54:44.565Z" agent="5.0 (Windows NT 10.0; Win64; x64) AppleWebKit/537.36 (KHTML, like Gecko) Chrome/101.0.4951.67 Safari/537.36" etag="A5CRM7zzSoJzRXc8PjYZ" version="18.1.3" type="github">
  <diagram id="_Ad6gfQKwm5swsQObtFt" name="Page-1">
    <mxGraphModel dx="1038" dy="579" grid="1" gridSize="10" guides="1" tooltips="1" connect="1" arrows="1" fold="1" page="1" pageScale="1" pageWidth="827" pageHeight="1169" math="0" shadow="0">
      <root>
        <mxCell id="0" />
        <mxCell id="1" parent="0" />
        <mxCell id="mWXxWWw2TDqT4LpvdnpT-6" value="Size (n)" style="text;html=1;strokeColor=none;fillColor=none;align=center;verticalAlign=middle;whiteSpace=wrap;rounded=0;" vertex="1" parent="1">
          <mxGeometry x="354" y="320" width="60" height="30" as="geometry" />
        </mxCell>
        <mxCell id="mWXxWWw2TDqT4LpvdnpT-10" value="" style="group" vertex="1" connectable="0" parent="1">
          <mxGeometry x="180" y="160" width="220" height="160" as="geometry" />
        </mxCell>
        <mxCell id="mWXxWWw2TDqT4LpvdnpT-1" value="" style="endArrow=classic;html=1;rounded=0;" edge="1" parent="mWXxWWw2TDqT4LpvdnpT-10">
          <mxGeometry width="50" height="50" relative="1" as="geometry">
            <mxPoint x="60" y="160" as="sourcePoint" />
            <mxPoint x="60" as="targetPoint" />
          </mxGeometry>
        </mxCell>
        <mxCell id="mWXxWWw2TDqT4LpvdnpT-2" value="" style="endArrow=classic;html=1;rounded=0;" edge="1" parent="mWXxWWw2TDqT4LpvdnpT-10">
          <mxGeometry width="50" height="50" relative="1" as="geometry">
            <mxPoint x="60" y="160" as="sourcePoint" />
            <mxPoint x="220" y="160" as="targetPoint" />
          </mxGeometry>
        </mxCell>
        <mxCell id="mWXxWWw2TDqT4LpvdnpT-4" value="" style="endArrow=none;html=1;rounded=0;" edge="1" parent="mWXxWWw2TDqT4LpvdnpT-10">
          <mxGeometry width="50" height="50" relative="1" as="geometry">
            <mxPoint x="60" y="120" as="sourcePoint" />
            <mxPoint x="220" y="120" as="targetPoint" />
          </mxGeometry>
        </mxCell>
        <mxCell id="mWXxWWw2TDqT4LpvdnpT-5" value="Time&lt;br&gt;(ms)" style="text;html=1;strokeColor=none;fillColor=none;align=center;verticalAlign=middle;whiteSpace=wrap;rounded=0;" vertex="1" parent="mWXxWWw2TDqT4LpvdnpT-10">
          <mxGeometry width="60" height="30" as="geometry" />
        </mxCell>
        <mxCell id="mWXxWWw2TDqT4LpvdnpT-8" value="Search time" style="text;html=1;strokeColor=none;fillColor=none;align=center;verticalAlign=middle;whiteSpace=wrap;rounded=0;rotation=0;" vertex="1" parent="mWXxWWw2TDqT4LpvdnpT-10">
          <mxGeometry x="120" y="100" width="86" height="10" as="geometry" />
        </mxCell>
      </root>
    </mxGraphModel>
  </diagram>
</mxfile>
